<svg width="58" height="48" viewBox="0 0 58 48" fill="none" xmlns="http://www.w3.org/2000/svg">
<g clip-path="url(#clip0_106_350)">
<path d="M12.1134 43.4267C16.2511 43.4267 19.6054 40.1073 19.6054 36.0125C19.6054 31.9178 16.2511 28.5983 12.1134 28.5983C7.97564 28.5983 4.62134 31.9178 4.62134 36.0125C4.62134 40.1073 7.97564 43.4267 12.1134 43.4267Z" stroke="#14141E" stroke-width="2" stroke-miterlimit="10"/>
<path d="M10.2164 12.2437C13.3998 12.2437 15.9804 9.68992 15.9804 6.53964C15.9804 3.38937 13.3998 0.835571 10.2164 0.835571C7.03307 0.835571 4.45245 3.38937 4.45245 6.53964C4.45245 9.68992 7.03307 12.2437 10.2164 12.2437Z" stroke="#14141E" stroke-width="2" stroke-miterlimit="10"/>
<path d="M15.9635 7.2304C16.2454 7.14069 16.5397 7.09544 16.8358 7.09658C17.6166 7.09658 18.3655 7.40374 18.9175 7.95009C19.4696 8.49644 19.7797 9.23722 19.7797 10.0099C19.7783 10.7816 19.4675 11.5213 18.9156 12.0664C18.3637 12.6116 17.6156 12.9177 16.8358 12.9177C16.2602 12.9177 15.6973 12.7502 15.217 12.4363C14.7367 12.1224 14.3602 11.6759 14.1341 11.152" stroke="#14141E" stroke-width="2" stroke-miterlimit="10"/>
<path d="M12.1134 37.8898C13.161 37.8898 14.0103 37.0493 14.0103 36.0125C14.0103 34.9758 13.161 34.1353 12.1134 34.1353C11.0657 34.1353 10.2164 34.9758 10.2164 36.0125C10.2164 37.0493 11.0657 37.8898 12.1134 37.8898Z" stroke="#14141E" stroke-width="2" stroke-miterlimit="10"/>
<path d="M54.0937 30.3251V33.7843C54.0937 34.8731 53.6566 35.9174 52.8786 36.6873C52.1006 37.4572 51.0454 37.8898 49.9452 37.8898H22.5549" stroke="#14141E" stroke-width="2" stroke-miterlimit="10"/>
<path d="M15.1981 3.68195H50.1535C51.1985 3.68195 52.2007 4.09278 52.9396 4.82404C53.6785 5.55529 54.0937 6.54706 54.0937 7.58122V17.6079" stroke="#14141E" stroke-width="2" stroke-miterlimit="10"/>
<path d="M5.31366 27.735V9.36383" stroke="#14141E" stroke-width="2" stroke-miterlimit="10"/>
<path d="M10.2164 8.52269C11.3231 8.52269 12.2203 7.63485 12.2203 6.53964C12.2203 5.44442 11.3231 4.55658 10.2164 4.55658C9.10969 4.55658 8.21252 5.44442 8.21252 6.53964C8.21252 7.63485 9.10969 8.52269 10.2164 8.52269Z" stroke="#14141E" stroke-width="2" stroke-miterlimit="10"/>
<path d="M46.1006 33.0491H34.5557C33.1102 33.0491 31.9383 34.2088 31.9383 35.6393V40.2571C31.9383 41.6877 33.1102 42.8474 34.5557 42.8474H46.1006C47.5461 42.8474 48.718 41.6877 48.718 40.2571V35.6393C48.718 34.2088 47.5461 33.0491 46.1006 33.0491Z" stroke="#14141E" stroke-width="2" stroke-miterlimit="10"/>
<path d="M57.1556 28.1917V19.7025C57.1556 18.7796 56.3995 18.0314 55.4669 18.0314H53.0634C52.1307 18.0314 51.3747 18.7796 51.3747 19.7025V28.1917C51.3747 29.1146 52.1307 29.8628 53.0634 29.8628H55.4669C56.3995 29.8628 57.1556 29.1146 57.1556 28.1917Z" stroke="#14141E" stroke-width="2" stroke-miterlimit="10"/>
<path d="M5.31369 11.1854C5.21356 11.1654 5.11183 11.1542 5.00971 11.1519H2.48221C2.26811 11.1519 2.05631 11.1936 1.85858 11.2749C1.66085 11.3561 1.48118 11.4754 1.33005 11.6255C1.17892 11.7755 1.05911 11.9536 0.977694 12.1496C0.896274 12.3455 0.854921 12.5554 0.855662 12.7673V20.5381C0.855662 20.7495 0.897591 20.9588 0.979343 21.1541C1.06109 21.3494 1.18092 21.5269 1.33197 21.6764C1.48303 21.8258 1.66231 21.9444 1.85968 22.0253C2.05705 22.1062 2.26858 22.1477 2.48221 22.1477H5.00971C5.11166 22.1472 5.21339 22.138 5.31369 22.12V11.1854Z" stroke="#14141E" stroke-width="2" stroke-miterlimit="10"/>
<path d="M15.8959 7.4643H45.4758C45.7808 7.46357 46.0829 7.52255 46.3649 7.63756C46.647 7.75257 46.9032 7.9213 47.1191 8.13449C47.3351 8.34767 47.5066 8.60094 47.6235 8.87974C47.7404 9.15855 47.8005 9.45751 47.8005 9.75936V27.0276C47.8005 27.3294 47.7404 27.6284 47.6235 27.9072C47.5066 28.186 47.3351 28.4392 47.1191 28.6524C46.9032 28.8656 46.647 29.0344 46.3649 29.1494C46.0829 29.2644 45.7808 29.3233 45.4758 29.3226H21.1196" stroke="#14141E" stroke-width="2" stroke-miterlimit="10"/>
<path d="M26.9849 7.45874V29.3281" stroke="#14141E" stroke-width="2" stroke-miterlimit="10"/>
<path d="M30.8181 7.45874V29.3281" stroke="#14141E" stroke-width="2" stroke-miterlimit="10"/>
<path d="M47.8005 11.1519H30.8181" stroke="#14141E" stroke-width="2" stroke-miterlimit="10"/>
<path d="M26.9849 11.1519H19.6054" stroke="#14141E" stroke-width="2" stroke-miterlimit="10"/>
<path d="M37.1562 10.8679V17.2075" stroke="#14141E" stroke-width="2" stroke-miterlimit="10"/>
<path d="M41.6875 10.8679V17.2075" stroke="#14141E" stroke-width="2" stroke-miterlimit="10"/>
<path d="M16.1436 12.9177V16.6499" stroke="#14141E" stroke-width="2" stroke-miterlimit="10"/>
<path d="M21.1927 11.1519V16.6499" stroke="#14141E" stroke-width="2" stroke-miterlimit="10"/>
<path d="M37.1562 23.5472V29.8868" stroke="#14141E" stroke-width="2" stroke-miterlimit="10"/>
<path d="M41.6875 23.5472V29.8868" stroke="#14141E" stroke-width="2" stroke-miterlimit="10"/>
<path d="M41.5512 15.3962H37.2926C35.7158 15.3962 34.4375 16.6737 34.4375 18.2495V22.5053C34.4375 24.0811 35.7158 25.3585 37.2926 25.3585H41.5512C43.128 25.3585 44.4062 24.0811 44.4062 22.5053V18.2495C44.4062 16.6737 43.128 15.3962 41.5512 15.3962Z" fill="#00B4FB" stroke="#14141E" stroke-width="2" stroke-miterlimit="10"/>
<path d="M20.7074 15.3962H16.4488C14.872 15.3962 13.5938 16.6737 13.5938 18.2495V22.5053C13.5938 24.0811 14.872 25.3585 16.4488 25.3585H20.7074C22.2842 25.3585 23.5625 24.0811 23.5625 22.5053V18.2495C23.5625 16.6737 22.2842 15.3962 20.7074 15.3962Z" fill="#00B4FB" stroke="#14141E" stroke-width="2" stroke-miterlimit="10"/>
<path d="M12.1021 25.0667C9.1919 25.0667 6.40082 26.2106 4.34251 28.2471C2.28419 30.2835 1.12715 33.0457 1.12579 35.9264C1.12579 37.3532 1.40974 38.766 1.96135 40.0842C2.51296 41.4023 3.32127 42.6 4.34051 43.6089C5.35976 44.6178 6.56995 45.4181 7.90166 45.9641C9.23337 46.5101 10.6607 46.7912 12.1021 46.7912C13.5435 46.7912 14.9709 46.5101 16.3026 45.9641C17.6343 45.4181 18.8442 44.6178 19.8635 43.6089C20.8827 42.6 21.6913 41.4023 22.2429 40.0842C22.7945 38.766 23.0784 37.3532 23.0784 35.9264C23.0771 33.0457 21.92 30.2835 19.8617 28.2471C17.8034 26.2106 15.0123 25.0667 12.1021 25.0667V25.0667ZM12.1021 43.4339C11.1063 43.4339 10.1204 43.2395 9.20045 42.8622C8.28054 42.4848 7.44472 41.9319 6.74084 41.2347C6.03697 40.5375 5.47872 39.7099 5.09812 38.7991C4.71752 37.8882 4.5219 36.912 4.52257 35.9264C4.52257 33.9366 5.32118 32.0285 6.74259 30.6215C8.16399 29.2146 10.0919 28.4241 12.1021 28.4241C14.1123 28.4241 16.04 29.2146 17.4614 30.6215C18.8828 32.0285 19.6814 33.9366 19.6814 35.9264C19.6821 36.912 19.4865 37.8882 19.1059 38.7991C18.7253 39.7099 18.1673 40.5375 17.4634 41.2347C16.7595 41.9319 15.9237 42.4848 15.0038 42.8622C14.0839 43.2395 13.0979 43.4339 12.1021 43.4339V43.4339Z" stroke="#14141E" stroke-width="2"/>
<path d="M51.3748 21.7078H57.1557" stroke="#14141E" stroke-width="2" stroke-miterlimit="10"/>
<path d="M51.3748 25.8688H57.1557" stroke="#14141E" stroke-width="2" stroke-miterlimit="10"/>
</g>
<defs>
<clipPath id="clip0_106_350">
<rect width="58" height="48" fill="white"/>
</clipPath>
</defs>
</svg>
