<svg width="69" height="68" viewBox="0 0 69 68" fill="none" xmlns="http://www.w3.org/2000/svg">
<path d="M29.3453 55.6506L29.3456 58.4115C29.3434 58.9544 29.4486 59.4924 29.6552 59.9943C29.862 60.4963 30.1663 60.9525 30.5502 61.3363C30.9341 61.7203 31.39 62.0242 31.8919 62.231C32.394 62.4378 32.9322 62.5432 33.4751 62.541H39.3743C39.9169 62.5421 40.4541 62.4358 40.9556 62.2287C41.4572 62.0216 41.9129 61.7174 42.2966 61.3337C42.6801 60.9501 42.9844 60.4944 43.1915 59.9929C43.3986 59.4914 43.5049 58.9541 43.5038 58.4115L43.5035 55.4029C45.1524 54.8849 46.7406 54.1908 48.2407 53.3324L50.4823 55.5739C51.2542 56.3427 52.2995 56.7736 53.3889 56.7725C54.4784 56.7714 55.5228 56.3383 56.2931 55.5679L60.4755 51.3854C61.2453 50.6157 61.6778 49.5717 61.6778 48.4831C61.6778 47.3944 61.2453 46.3504 60.4755 45.5807L57.9859 43.0912C58.6842 41.7263 59.2514 40.2981 59.6793 38.826L63.089 38.8263C63.6322 38.8296 64.1704 38.7247 64.673 38.5183C65.1755 38.312 65.632 38.008 66.0161 37.6239C66.4002 37.2398 66.7042 36.7833 66.9105 36.2808C67.1169 35.7783 67.2218 35.2401 67.2185 34.6968V28.7976C67.2218 28.2544 67.1172 27.7158 66.9108 27.2133C66.7045 26.7109 66.4005 26.2543 66.0164 25.8702C65.6323 25.4861 65.1755 25.1819 64.673 24.9755C64.1704 24.7692 63.6322 24.6648 63.089 24.6681H59.5494C59.0534 23.0553 58.393 21.4974 57.5789 20.0194L60.6288 16.9695C61.399 16.1992 61.8326 15.1544 61.8337 14.0651C61.8348 12.9757 61.4036 11.9306 60.6348 11.1587L56.4524 6.97631C55.681 6.20494 54.6347 5.77134 53.544 5.77134C52.4531 5.77134 51.4068 6.20494 50.6355 6.97631L47.4973 10.1146C46.2128 9.44949 44.8725 8.89877 43.4917 8.46861V5.12961C43.4928 4.587 43.3865 4.04974 43.1795 3.54823C42.9723 3.04673 42.668 2.591 42.2845 2.2073C41.9008 1.82361 41.4453 1.51979 40.9438 1.31261C40.4423 1.10558 39.9048 0.999034 39.3622 1.00013H33.463C32.9194 0.995735 32.3805 1.09953 31.8776 1.30547C31.3746 1.5114 30.9176 1.8155 30.5333 2.19988C30.1489 2.58412 29.8448 3.04123 29.6388 3.54411C29.4329 4.04713 29.3291 4.58603 29.3335 5.12961L29.3338 8.20905C27.7689 8.64279 26.251 9.23173 24.8032 9.96708L22.4079 7.57199C21.6382 6.80213 20.5942 6.36964 19.5056 6.36964C18.417 6.36964 17.373 6.80213 16.6033 7.57199L12.4205 11.7547C11.6502 12.5249 11.217 13.5693 11.2159 14.6588C11.2148 15.7482 11.646 16.7933 12.4147 17.5652L14.5797 19.7302C13.6767 21.3084 12.9525 22.9823 12.4205 24.7209L9.7598 24.727C9.21664 24.7237 8.67829 24.8284 8.17581 25.0349C7.67334 25.2413 7.21679 25.5451 6.83268 25.9292C6.44858 26.3133 6.14462 26.7698 5.93827 27.2725C5.73192 27.7749 5.62703 28.3131 5.63032 28.8564V34.7556C5.62922 35.2981 5.73549 35.8355 5.94253 36.337C6.14971 36.8385 6.45394 37.2941 6.8375 37.6778C7.22119 38.0615 7.67692 38.3656 8.17843 38.5728C8.67994 38.7799 9.21719 38.8861 9.7598 38.8851L12.3321 38.885" fill="#00B4FB"/>
<path d="M29.3453 55.6506L29.3456 58.4115C29.3434 58.9544 29.4486 59.4924 29.6552 59.9943C29.862 60.4963 30.1663 60.9525 30.5503 61.3363C30.9341 61.7203 31.39 62.0242 31.8919 62.231C32.394 62.4378 32.9322 62.5432 33.4751 62.541H39.3743C39.9169 62.5421 40.4541 62.4358 40.9556 62.2287C41.4572 62.0216 41.9129 61.7174 42.2966 61.3337C42.6801 60.9501 42.9844 60.4944 43.1915 59.9929C43.3986 59.4914 43.5049 58.9541 43.5038 58.4115L43.5035 55.4029C45.1524 54.8849 46.7406 54.1908 48.2407 53.3324L50.4823 55.5739C51.2542 56.3427 52.2995 56.7736 53.3889 56.7725C54.4784 56.7714 55.5228 56.3383 56.2931 55.5679L60.4755 51.3854C61.2453 50.6157 61.6778 49.5717 61.6778 48.4831C61.6778 47.3944 61.2453 46.3504 60.4755 45.5807L57.9859 43.0912C58.6842 41.7263 59.2514 40.2981 59.6793 38.826L63.089 38.8263C63.6322 38.8296 64.1704 38.7247 64.673 38.5183C65.1755 38.312 65.632 38.008 66.0161 37.6239C66.4002 37.2398 66.7042 36.7833 66.9105 36.2808C67.1169 35.7783 67.2218 35.2401 67.2185 34.6968V28.7976C67.2218 28.2544 67.1172 27.7158 66.9108 27.2133C66.7045 26.7109 66.4005 26.2543 66.0164 25.8702C65.6323 25.4861 65.1755 25.1819 64.673 24.9755C64.1705 24.7692 63.6322 24.6648 63.089 24.6681H59.5494C59.0534 23.0553 58.393 21.4974 57.5789 20.0194L60.6288 16.9695C61.399 16.1992 61.8326 15.1544 61.8337 14.0651C61.8348 12.9757 61.4036 11.9306 60.6348 11.1587L56.4524 6.97631C55.681 6.20494 54.6347 5.77134 53.544 5.77134C52.4531 5.77134 51.4068 6.20494 50.6355 6.97631L47.4973 10.1146C46.2128 9.44949 44.8725 8.89877 43.4917 8.46861V5.12961C43.4928 4.587 43.3865 4.04974 43.1795 3.54823C42.9723 3.04673 42.668 2.591 42.2845 2.2073C41.9008 1.82361 41.4453 1.51979 40.9438 1.31261C40.4423 1.10558 39.9048 0.999034 39.3622 1.00013H33.463C32.9194 0.995735 32.3805 1.09953 31.8776 1.30547C31.3746 1.5114 30.9176 1.8155 30.5333 2.19988C30.1489 2.58412 29.8448 3.04123 29.6388 3.54411C29.4329 4.04713 29.3291 4.58603 29.3335 5.12961L29.3338 8.20905C27.7689 8.64279 26.251 9.23173 24.8032 9.96708L22.4079 7.57199C21.6382 6.80213 20.5942 6.36964 19.5056 6.36964C18.417 6.36964 17.373 6.80213 16.6033 7.57199L12.4205 11.7547C11.6502 12.5249 11.217 13.5693 11.2159 14.6588C11.2148 15.7482 11.646 16.7933 12.4147 17.5652L14.5797 19.7302C13.6767 21.3084 12.9525 22.9823 12.4205 24.7209L9.7598 24.727C9.21664 24.7237 8.67829 24.8284 8.17581 25.0349C7.67334 25.2413 7.21679 25.5451 6.83268 25.9292C6.44858 26.3133 6.14462 26.7698 5.93827 27.2725C5.73192 27.7749 5.62703 28.3131 5.63032 28.8564V34.7556C5.62922 35.2981 5.73549 35.8355 5.94253 36.337C6.14971 36.8385 6.45394 37.2941 6.8375 37.6778C7.22119 38.0615 7.67692 38.3656 8.17843 38.5728C8.67994 38.7799 9.21719 38.8861 9.7598 38.8851H12.3321" stroke="#14141E" stroke-width="2" stroke-linecap="round" stroke-linejoin="round"/>
<path d="M47.0605 36.9087C48.522 35.4511 49.5553 33.6199 50.0473 31.6153C50.5393 29.6106 50.4716 27.5098 49.8511 25.5412L42.1822 33.2102L38.9553 33.5227L34.4953 29.0629L34.8082 25.8362L42.4771 18.1672C40.5085 17.5467 38.4074 17.4787 36.4028 17.9707C34.3982 18.4627 32.5671 19.496 31.1093 20.9575C29.8698 22.1952 28.9368 23.7053 28.3847 25.3678C27.8326 27.0302 27.6767 28.7987 27.9296 30.5319L2.40366 56.0578C1.51654 56.9449 1.01819 58.1481 1.01819 59.4027C1.01819 60.6571 1.51654 61.8603 2.40366 62.7475L5.27057 65.6144C6.1577 66.5015 7.36088 67 8.61547 67C9.86994 67 11.0731 66.5015 11.9602 65.6144L37.4862 40.0885C39.2195 40.3413 40.9878 40.1855 42.6503 39.6334C44.3127 39.0813 45.8228 38.1482 47.0605 36.9087Z" fill="#FBFBFC" stroke="#14141E" stroke-width="2" stroke-miterlimit="10"/>
<path d="M30.0651 40.7611C30.8405 39.9856 30.8405 38.7283 30.0651 37.953C29.2898 37.1776 28.0326 37.1776 27.2571 37.953L8.5566 56.6534C7.7811 57.4289 7.7811 58.6862 8.5566 59.4615C9.33196 60.2369 10.5892 60.2369 11.3647 59.4615L30.0651 40.7611Z" fill="#00B4FB"/>
</svg>
