<svg width="38" height="54" viewBox="0 0 38 54" fill="none" xmlns="http://www.w3.org/2000/svg">
<path d="M36.8361 47.4179L29.2393 45.6722L25.1904 52.3315L15.5409 30.0181L27.1785 25.1044L36.8361 47.4179Z" stroke="#14141E" stroke-width="2" stroke-linecap="round" stroke-linejoin="round"/>
<path d="M1.32532 47.4179L8.92208 45.6722L12.971 52.3315L22.6205 30.0181L10.9748 25.1044L1.32532 47.4179Z" stroke="#14141E" stroke-width="2" stroke-linecap="round" stroke-linejoin="round"/>
<path d="M33.2235 15.7617L33.5158 16.0507H33.9268H35.5252C35.9191 16.0669 36.2921 16.2339 36.5669 16.5178C36.8449 16.805 37.0002 17.1888 37 17.588V17.5885V21.2576C37 21.4591 36.9602 21.6592 36.8828 21.8461C36.8055 22.0325 36.6923 22.2019 36.5494 22.3448C36.4066 22.4877 36.2371 22.6009 36.0507 22.6781C35.8638 22.7555 35.6638 22.7954 35.4622 22.7954H33.8053H33.0653L32.8489 23.503C32.5436 24.502 32.1287 25.4637 31.6114 26.3709L31.2347 27.0317L31.7709 27.5711L33.1043 28.9128L33.1071 28.9157C33.2763 29.0845 33.4015 29.2921 33.472 29.5207L33.4964 29.5999L33.5335 29.6739C33.6772 29.9607 33.7271 30.2852 33.6762 30.6016C33.6254 30.9179 33.4769 31.2098 33.2517 31.4367C33.2513 31.4371 33.2508 31.4375 33.2504 31.4379L30.6658 34.0226L30.6636 34.0247C30.5212 34.168 30.3522 34.2815 30.1664 34.3588C29.9809 34.436 29.7809 34.4759 29.5786 34.4759C29.3764 34.4759 29.1768 34.4361 28.9911 34.3588C28.8053 34.2815 28.6364 34.168 28.4939 34.0247L28.4918 34.0226L26.7219 32.2527L26.2159 31.7467L25.5737 32.0624C24.7782 32.4534 23.9494 32.7726 23.097 33.0165L22.3721 33.224V33.9779V35.8855C22.3721 36.2931 22.2101 36.6842 21.9216 36.9727C21.6333 37.2609 21.2423 37.4229 20.8344 37.4229H17.1652C16.7573 37.4229 16.3663 37.2609 16.0781 36.9727C15.7895 36.6842 15.6275 36.2931 15.6275 35.8855V33.9779V33.224L14.9026 33.0165C14.0502 32.7726 13.2214 32.4534 12.4259 32.0624L11.7837 31.7467L11.2777 32.2527L9.50783 34.0226L9.50567 34.0247C9.36324 34.168 9.19429 34.2815 9.00847 34.3588C8.82279 34.4361 8.62322 34.4759 8.42103 34.4759C8.21884 34.4759 8.01927 34.4361 7.8336 34.3588C7.64736 34.2814 7.47811 34.1677 7.336 34.0247L7.33389 34.0226L4.7496 31.4379C4.7494 31.4377 4.7492 31.4375 4.749 31.4373C4.52303 31.21 4.37418 30.9177 4.32339 30.6016C4.27255 30.2852 4.32246 29.9607 4.46611 29.6739L4.50321 29.5999L4.52763 29.5207C4.59812 29.2921 4.7233 29.0845 4.89247 28.9157L4.89534 28.9128L6.22874 27.5711L6.7649 27.0317L6.38816 26.3709C5.87088 25.4637 5.45601 24.502 5.15065 23.503L4.93433 22.7954H4.19434H2.53736C2.33581 22.7954 2.1358 22.7555 1.9489 22.6781C1.76246 22.6009 1.59303 22.4877 1.45016 22.3448C1.30729 22.2019 1.19407 22.0325 1.11685 21.8461C1.03973 21.6599 1 21.4599 1 21.2576V17.5885C1 17.3862 1.03973 17.1862 1.11684 17C1.19407 16.8136 1.30729 16.6442 1.45016 16.5013C1.59303 16.3584 1.76246 16.2452 1.9489 16.168L1.56622 15.2441L1.9489 16.168C2.13581 16.0906 2.33581 16.0507 2.53736 16.0507H4.15369H4.56473L4.85695 15.7617L5.62487 15.002L5.78884 14.8398L5.86521 14.6222C6.07312 14.0296 6.32386 13.4531 6.61547 12.8968L6.95685 12.2455L6.43697 11.7255L4.90154 10.1896L4.89995 10.1881C4.75629 10.045 4.64254 9.87539 4.56496 9.68865C4.4873 9.50173 4.44733 9.30133 4.44733 9.0988C4.44733 8.89612 4.48736 8.69534 4.56496 8.50856C4.64254 8.32182 4.75629 8.1522 4.89995 8.00915L4.9015 8.00761L7.48499 5.42371C7.48536 5.42334 7.48572 5.42298 7.48609 5.42262C7.77539 5.1358 8.16663 4.97476 8.57453 4.97476C8.9819 4.97476 9.37244 5.13539 9.66177 5.42181L11.0417 6.80957L11.5825 7.3535L12.248 6.9721C13.0382 6.51923 13.8711 6.14565 14.7348 5.85677L14.9501 5.78473L15.1133 5.62674L15.3638 5.38405L15.6681 5.08934V4.66573V2.9606C15.6681 2.75826 15.7079 2.55832 15.785 2.37215C15.8622 2.1857 15.9754 2.01628 16.1183 1.87341C16.2609 1.73086 16.4306 1.61749 16.6174 1.54009L16.2348 0.616212L16.6174 1.54009C16.8043 1.46267 17.0043 1.42285 17.2059 1.42285H20.8746C21.2824 1.42285 21.6738 1.585 21.9622 1.87341C22.2504 2.16165 22.4124 2.55263 22.4124 2.9606V4.66573V5.08934L22.7167 5.38405L22.9672 5.62674L23.1304 5.78473L23.3457 5.85677C24.2094 6.14565 25.0423 6.51923 25.8325 6.9721L26.498 7.3535L27.0388 6.80957L28.4168 5.42371C28.4174 5.42309 28.4181 5.42248 28.4187 5.42187C28.708 5.13541 29.0986 4.97476 29.506 4.97476C29.9139 4.97476 30.3051 5.1358 30.5944 5.42262C30.5948 5.42298 30.5951 5.42334 30.5955 5.42371L33.179 8.00761L33.1806 8.00915C33.3242 8.1522 33.438 8.32181 33.5155 8.50855C33.5931 8.69534 33.6332 8.89612 33.6332 9.0988C33.6332 9.30133 33.5932 9.50172 33.5155 9.68865C33.438 9.8754 33.3242 10.045 33.1806 10.1881L33.179 10.1896L31.6435 11.7255L31.1236 12.2455L31.465 12.8968C31.7566 13.4531 32.0074 14.0296 32.2153 14.6222L32.2917 14.8398L32.4556 15.002L33.2235 15.7617ZM13.9962 24.5561C15.3447 25.9047 17.1738 26.6619 19.0807 26.6619C20.9876 26.6619 22.8167 25.9047 24.1652 24.5561C25.5137 23.2077 26.2714 21.3787 26.2714 19.4716C26.2714 17.5645 25.5137 15.7355 24.1652 14.387C22.8168 13.0386 20.9878 12.2809 19.0807 12.2809C17.1736 12.2809 15.3446 13.0386 13.9962 14.387C12.6477 15.7355 11.89 17.5645 11.89 19.4716C11.89 21.3787 12.6477 23.2077 13.9962 24.5561Z" fill="#00B4FB" stroke="#14141E" stroke-width="2"/>
</svg>
