<svg width="62" height="61" viewBox="0 0 62 61" fill="none" xmlns="http://www.w3.org/2000/svg">
<g clip-path="url(#clip0_281_606)">
<path d="M30.0911 17.4304V15.3055C30.0911 14.4678 29.7582 13.6647 29.1655 13.0724C28.5727 12.4801 27.7688 12.147 26.9305 12.147H22.3692C21.531 12.147 20.727 12.4801 20.1342 13.0724C19.5415 13.6647 19.2086 14.4678 19.2086 15.3055V17.6232C17.9388 18.0249 16.7155 18.5606 15.5595 19.2215L13.8314 17.4947C13.537 17.1981 13.1866 16.9629 12.8007 16.8022C12.4148 16.6416 12.001 16.5587 11.5829 16.5587C11.1649 16.5587 10.7508 16.6416 10.3649 16.8022C9.97901 16.9629 9.62889 17.1981 9.33447 17.4947L6.12236 20.7045C5.82557 20.9987 5.58988 21.3489 5.42912 21.7345C5.26837 22.1201 5.18571 22.5336 5.18571 22.9514C5.18571 23.3691 5.26837 23.7829 5.42912 24.1685C5.58988 24.5542 5.82557 24.904 6.12236 25.1982L8.04963 27.1241C7.51704 28.1739 7.08678 29.2723 6.76478 30.4045H4.15651C3.31765 30.4062 2.51378 30.7405 1.92121 31.3339C1.32865 31.9272 0.995848 32.7312 0.99585 33.5695V38.1209C0.99585 38.9586 1.32878 39.762 1.92153 40.3543C2.51428 40.9466 3.31824 41.2796 4.15651 41.2796H6.86767C7.24494 42.5218 7.75307 43.7203 8.3837 44.8553L6.03233 47.2049C5.73398 47.4983 5.49707 47.848 5.33533 48.2337C5.17359 48.6195 5.09035 49.0336 5.09035 49.4518C5.09035 49.8701 5.17359 50.2838 5.33533 50.6696C5.49707 51.0554 5.73398 51.4054 6.03233 51.6987L9.24444 54.9085C9.5393 55.2043 9.88967 55.4389 10.2755 55.5991C10.6614 55.7592 11.0751 55.8417 11.4929 55.8417C11.9107 55.8417 12.3245 55.7592 12.7103 55.5991C13.0962 55.4389 13.4465 55.2043 13.7414 54.9085L16.1571 52.4883C17.1416 53.0088 18.1717 53.4385 19.2343 53.7722V56.3401C19.236 57.1783 19.5703 57.9816 20.164 58.5738C20.7578 59.1659 21.5624 59.4985 22.4012 59.4985H26.9562C27.7951 59.4985 28.5996 59.1659 29.1934 58.5738C29.7872 57.9816 30.1214 57.1783 30.1231 56.3401V53.9647C31.3252 53.6305 32.4914 53.1789 33.605 52.6165L35.4554 54.4653C35.7503 54.7611 36.1007 54.996 36.4865 55.1561C36.8724 55.3163 37.2861 55.3988 37.7039 55.3988C38.1217 55.3988 38.5351 55.3163 38.921 55.1561C39.3068 54.996 39.6575 54.7611 39.9524 54.4653L43.1645 51.2555C43.4628 50.9621 43.6998 50.6124 43.8615 50.2267C44.0232 49.8409 44.1065 49.4268 44.1065 49.0086C44.1065 48.5903 44.0232 48.1765 43.8615 47.7908C43.6998 47.405 43.4628 47.055 43.1645 46.7617L41.5004 45.0991C42.1947 43.88 42.7529 42.5883 43.1645 41.2473H45.2138C45.6297 41.2473 46.0413 41.1656 46.4255 41.0066C46.8098 40.8475 47.1591 40.6143 47.4532 40.3204C47.7473 40.0266 47.9806 39.6775 48.1398 39.2935C48.299 38.9096 48.3807 38.4983 48.3807 38.0827V33.5309C48.379 32.6926 48.0447 31.8893 47.451 31.2972C46.8572 30.7051 46.0526 30.3725 45.2138 30.3725H43.2351" stroke="#14141E" stroke-width="2" stroke-linecap="round" stroke-linejoin="round"/>
<path d="M56.9953 15.7411H55.6316L54.9837 15.1014C54.7893 14.566 54.5616 14.043 54.3018 13.5359L55.5973 12.2429C55.997 11.8413 56.2216 11.2983 56.2216 10.7322C56.2216 10.1661 55.997 9.62286 55.5973 9.22125L53.4156 7.04332C53.2166 6.84393 52.9801 6.68572 52.7197 6.57776C52.4594 6.4698 52.1803 6.41426 51.8983 6.41426C51.6164 6.41426 51.3373 6.4698 51.077 6.57776C50.8166 6.68572 50.5801 6.84393 50.3811 7.04332L49.2152 8.20705C48.498 7.80239 47.7445 7.46521 46.9648 7.19983L46.7604 7.00244V5.56655C46.7604 4.99917 46.5351 4.45507 46.1338 4.05323C45.7325 3.6514 45.1877 3.42465 44.6192 3.42285H41.5169C40.9484 3.42465 40.404 3.6514 40.0027 4.05323C39.6014 4.45507 39.3758 4.99917 39.3758 5.56655V7.00244L39.1713 7.20681C38.3912 7.4682 37.6375 7.803 36.921 8.20705L35.755 7.04332C35.5561 6.84393 35.3199 6.68572 35.0595 6.57776C34.7992 6.4698 34.5201 6.41426 34.2381 6.41426C33.9562 6.41426 33.6768 6.4698 33.4165 6.57776C33.1561 6.68572 32.9199 6.84393 32.7209 7.04332L30.5458 9.22125C30.3463 9.41922 30.1878 9.65448 30.0797 9.91377C29.9716 10.1731 29.9159 10.4514 29.9159 10.7322C29.9159 11.0131 29.9716 11.2911 30.0797 11.5504C30.1878 11.8097 30.3463 12.0449 30.5458 12.2429L31.8343 13.5359C31.5746 14.043 31.3469 14.566 31.1525 15.1014L30.5049 15.7411H29.1412C28.8597 15.7402 28.581 15.7948 28.3208 15.9019C28.0606 16.009 27.8243 16.1662 27.6253 16.3648C27.4263 16.5634 27.2684 16.7993 27.1612 17.059C27.0539 17.3187 26.9991 17.5972 27 17.8781V20.9746C27 21.2552 27.0556 21.5331 27.1632 21.7924C27.2707 22.0516 27.4285 22.2871 27.6273 22.4855C27.8261 22.684 28.062 22.8414 28.3218 22.9488C28.5816 23.0562 28.86 23.1116 29.1412 23.1116H30.5049C30.7814 24.0131 31.1588 24.8805 31.6299 25.6976L30.4979 26.8205C30.2594 27.0626 30.0838 27.3594 29.9865 27.6848C29.7846 28.0825 29.7143 28.534 29.7854 28.9741C29.8564 29.4143 30.0652 29.8206 30.382 30.1349L32.5641 32.3128C32.7625 32.512 32.9982 32.6698 33.258 32.7777C33.5178 32.8856 33.7963 32.9412 34.0777 32.9412C34.359 32.9412 34.6376 32.8856 34.8974 32.7777C35.1572 32.6698 35.3932 32.512 35.5916 32.3128L37.0848 30.8221C37.7956 31.1804 38.54 31.4678 39.3075 31.6798V33.2858C39.3075 33.5664 39.3631 33.8443 39.4706 34.1036C39.5782 34.3629 39.736 34.5984 39.9348 34.7968C40.1336 34.9952 40.3695 35.1526 40.6293 35.26C40.889 35.3674 41.1675 35.4229 41.4487 35.4229H44.5513C45.1192 35.4229 45.6637 35.1975 46.0652 34.7968C46.4667 34.396 46.6921 33.8526 46.6921 33.2858V31.6798C47.4596 31.4678 48.2044 31.1804 48.9152 30.8221L50.4084 32.3128C50.6068 32.512 50.8425 32.6698 51.1023 32.7777C51.3621 32.8856 51.6406 32.9412 51.922 32.9412C52.2033 32.9412 52.4822 32.8856 52.742 32.7777C53.0018 32.6698 53.2375 32.512 53.4359 32.3128L55.618 30.1349C55.9341 29.8203 56.1431 29.4145 56.2153 28.9748C56.2875 28.5351 56.2191 28.0837 56.0202 27.6848C55.9175 27.3602 55.7398 27.0642 55.5018 26.8205L54.3701 25.6976C54.8412 24.8805 55.2185 24.0131 55.4951 23.1116H56.8588C57.14 23.1116 57.4184 23.0562 57.6782 22.9488C57.938 22.8414 58.1739 22.684 58.3727 22.4855C58.5715 22.2871 58.7292 22.0516 58.8368 21.7924C58.9444 21.5331 59 21.2552 59 20.9746V17.8781C59.0027 17.3337 58.7965 16.8088 58.4237 16.4113C58.0508 16.0139 57.5398 15.7741 56.9953 15.7411ZM43.1124 24.6837C42.4253 24.6846 41.745 24.55 41.1101 24.288C40.4751 24.026 39.8982 23.6417 39.4124 23.1568C38.9266 22.6719 38.5412 22.0961 38.2787 21.4624C38.0162 20.8287 37.8816 20.1493 37.8825 19.4636C37.8825 18.7784 38.0178 18.1 38.2807 17.4671C38.5436 16.8341 38.929 16.2591 39.4147 15.775C39.9004 15.2908 40.4772 14.907 41.1117 14.6455C41.7462 14.3839 42.4259 14.2498 43.1124 14.2507C44.4976 14.2507 45.8262 14.7997 46.8057 15.7773C47.7852 16.7549 48.3355 18.081 48.3355 19.4636C48.3364 20.1487 48.2021 20.8274 47.94 21.4607C47.6779 22.094 47.2931 22.6693 46.808 23.1541C46.3229 23.6389 45.7468 24.0236 45.1127 24.286C44.4785 24.5484 43.7988 24.6837 43.1124 24.6837Z" fill="#00B4FB" stroke="#14141E" stroke-width="2"/>
<path d="M37.3698 36.7473C37.3706 38.464 37.0327 40.164 36.3757 41.7501C35.7187 43.3363 34.7554 44.7774 33.5406 45.9912C32.3259 47.2051 30.8835 48.1677 29.2962 48.8243C27.7089 49.4808 26.0077 49.8185 24.2898 49.8176C22.5719 49.8185 20.8707 49.4808 19.2835 48.8243C17.6962 48.1677 16.2541 47.2051 15.0393 45.9912C13.8246 44.7774 12.8613 43.3363 12.2043 41.7501C11.5472 40.164 11.2094 38.464 11.2102 36.7473C11.2102 33.2808 12.5883 29.9561 15.0412 27.505C17.4941 25.0538 20.8209 23.6767 24.2898 23.6767" stroke="#14141E" stroke-width="2" stroke-linecap="round" stroke-linejoin="round"/>
<path d="M32.0055 36.7473C32.0055 38.7904 31.1934 40.7499 29.7476 42.1946C28.3019 43.6393 26.341 44.4509 24.2965 44.4509C22.2519 44.4509 20.291 43.6393 18.8453 42.1946C17.3996 40.7499 16.5874 38.7904 16.5874 36.7473C16.5874 34.7042 17.3996 32.7447 18.8453 31.3C20.291 29.8553 22.2519 29.0437 24.2965 29.0437" stroke="#14141E" stroke-width="2" stroke-linecap="round" stroke-linejoin="round"/>
</g>
<defs>
<clipPath id="clip0_281_606">
<rect width="62" height="60" fill="white" transform="translate(0 0.422852)"/>
</clipPath>
</defs>
</svg>
