<svg width="54" height="49" viewBox="0 0 54 49" fill="none" xmlns="http://www.w3.org/2000/svg">
<path d="M7.30005 47.8429V19.8229L25.22 8.74292L43.14 19.8229V27.2129" stroke="#14141E" stroke-width="2" stroke-linecap="round" stroke-linejoin="round"/>
<path d="M1 47.8428H49.43" stroke="#14141E" stroke-width="2" stroke-linecap="round" stroke-linejoin="round"/>
<path d="M49.43 23.7529L25.22 8.75285L1 23.7529V16.4229L25.22 1.42285L49.43 16.4229V23.7529Z" fill="#00B4FB" stroke="#14141E" stroke-width="2" stroke-linecap="round" stroke-linejoin="round"/>
<path d="M43.14 45.133C47.7902 45.133 51.56 41.3632 51.56 36.713C51.56 32.0627 47.7902 28.293 43.14 28.293C38.4897 28.293 34.72 32.0627 34.72 36.713C34.72 41.3632 38.4897 45.133 43.14 45.133Z" stroke="#14141E" stroke-width="2" stroke-linecap="round" stroke-linejoin="round"/>
<path d="M38.71 35.593L42.78 39.913L52.72 28.293" stroke="#14141E" stroke-width="2" stroke-linecap="round" stroke-linejoin="round"/>
<path d="M30.65 26.9929H19.79V47.8429H30.65V26.9929Z" stroke="#14141E" stroke-width="2" stroke-linecap="round" stroke-linejoin="round"/>
</svg>
