<svg width="53" height="51" viewBox="0 0 53 51" fill="none" xmlns="http://www.w3.org/2000/svg">
<g clip-path="url(#clip0_281_593)">
<path d="M38.7917 46.4645L13.9153 46.4645C13.194 47.4378 12.257 48.2285 11.1792 48.7734C10.1014 49.3183 8.91243 49.6024 7.70642 49.6034C6.28525 49.6014 4.89153 49.2078 3.67657 48.4653C2.46162 47.7228 1.47158 46.6595 0.813721 45.3908L8.30045 45.3908L10.0579 43.9566L10.0579 39.5884L8.30045 38.1542L0.813721 38.1542C1.47197 36.8865 2.46233 35.8245 3.67737 35.0834C4.8924 34.3422 6.2859 33.9504 7.70642 33.9501C8.91185 33.9495 10.1005 34.2322 11.1784 34.7757C12.2563 35.3191 13.1936 36.1083 13.9153 37.0806L39.0929 37.0806C39.8129 36.1058 40.7493 35.3143 41.8274 34.7693C42.9055 34.2242 44.0954 33.9411 45.3018 33.9421C46.7215 33.9411 48.1141 34.3324 49.328 35.0738C50.542 35.8151 51.5306 36.878 52.1861 38.1462L44.6998 38.1462L42.9503 39.5804L42.9503 43.9486L44.6998 45.3828L52.1861 45.3828C51.531 46.652 50.5427 47.7158 49.3288 48.4585C48.115 49.2012 46.7221 49.5943 45.3018 49.595C44.0958 49.594 42.9068 49.3099 41.829 48.765C40.7512 48.2201 39.8142 47.4298 39.0929 46.4565L38.7917 46.4645Z" fill="#00B4FB" stroke="#14141E" stroke-width="2" stroke-linecap="round" stroke-linejoin="round"/>
<path d="M25.438 1.24239L27.5619 1.24239C29.2885 1.24239 30.9444 1.93314 32.1652 3.16268C33.3861 4.39223 34.072 6.05985 34.072 7.79869L34.072 13.8059C34.072 14.8057 33.8765 15.7957 33.4965 16.7195C33.1166 17.6432 32.5598 18.4825 31.8578 19.1895C31.1558 19.8964 30.3224 20.4572 29.4052 20.8399C28.488 21.2225 27.505 21.4194 26.5122 21.4194V21.4194C24.5072 21.4194 22.5843 20.6173 21.1666 19.1895C19.7489 17.7617 18.9524 15.8251 18.9524 13.8059L18.9524 7.79869C18.9524 6.05985 19.6383 4.39223 20.8591 3.16268C22.08 1.93314 23.7359 1.24239 25.4624 1.24239L25.438 1.24239Z" stroke="#14141E" stroke-width="2" stroke-linecap="round" stroke-linejoin="round"/>
<path d="M18.9443 9.29845L34.0557 9.29845" stroke="#14141E" stroke-width="2" stroke-linecap="round" stroke-linejoin="round"/>
<path d="M18.9446 9.29836C18.9446 9.29836 22.1992 12.9206 26.504 12.9206C31.0122 12.9206 34.0559 9.29836 34.0559 9.29836" stroke="#14141E" stroke-width="2" stroke-linecap="round" stroke-linejoin="round"/>
<path d="M10.416 30.295L13.0202 27.8772C15.1543 25.8863 17.9559 24.7802 20.8649 24.7795C20.8649 24.7795 22.2646 29.8524 26.5612 29.8524C31.0694 29.8524 32.2003 24.7795 32.2003 24.7795C35.2532 24.7904 38.1781 26.0159 40.3379 28.1889L42.6981 30.5655" stroke="#14141E" stroke-width="2" stroke-linecap="round" stroke-linejoin="round"/>
<path d="M22.8829 20.4769L20.8647 24.7795" stroke="#14141E" stroke-width="2" stroke-linecap="round" stroke-linejoin="round"/>
<path d="M30.1171 20.4769L32.2248 24.7795" stroke="#14141E" stroke-width="2" stroke-linecap="round" stroke-linejoin="round"/>
</g>
<defs>
<clipPath id="clip0_281_593">
<rect width="53" height="50" fill="white" transform="translate(0 0.422852)"/>
</clipPath>
</defs>
</svg>
