<svg width="64" height="53" viewBox="0 0 64 53" fill="none" xmlns="http://www.w3.org/2000/svg">
<path d="M51.0334 12.4672C48.3419 11.9883 43.971 12.2945 38.6271 8.31378C35.9058 6.1788 33.3842 3.80025 31.0938 1.20801C28.8078 3.8046 26.2859 6.18355 23.5605 8.31378C18.3186 12.1845 13.8457 11.9883 11.1542 12.4672C11.1542 15.4822 8.8001 36.2253 22.0068 45.7177C25.6164 48.3008 31.0703 51.6456 31.0938 51.6377C31.1173 51.6299 36.5868 48.3008 40.1808 45.7177C53.4032 36.2253 51.0177 15.4822 51.0334 12.4672ZM47.1099 20.8289C47.099 23.6291 46.7991 26.4206 46.2152 29.1592C45.636 31.9325 44.5906 34.5873 43.1235 37.0106C41.4162 39.5828 39.1727 41.7549 36.5473 43.378C35.1976 44.2888 33.8246 45.1684 32.4356 46.0321C32.0119 46.299 31.4234 46.8799 30.9133 46.7072C30.5226 46.5247 30.1541 46.2983 29.8148 46.0321L28.0492 44.9168C26.5426 43.9433 25.0203 42.9778 23.5842 41.8943C18.876 38.3848 16.561 32.8024 15.6586 27.1729C15.2941 24.8091 15.1208 22.4197 15.1406 20.028C15.1406 18.6462 15.2662 17.272 15.2662 15.898C15.2668 15.8365 15.2867 15.7768 15.3233 15.7274C15.36 15.678 15.4114 15.6418 15.4701 15.6235C16.7178 15.4115 17.9733 15.3407 19.2132 15.0737C21.0469 14.688 22.7912 13.9578 24.3532 12.9223C26.8017 11.2147 29.0129 9.18979 30.929 6.90029C30.9553 6.87394 30.9863 6.85322 31.0206 6.83895C31.0549 6.82469 31.0919 6.8171 31.129 6.8171C31.1662 6.8171 31.2031 6.82469 31.2375 6.83895C31.2718 6.85322 31.3028 6.87394 31.3291 6.90029C33.278 9.23618 35.5353 11.2966 38.0386 13.0246C39.6031 14.0456 41.3472 14.7594 43.1783 15.1286C44.371 15.3641 45.5872 15.4194 46.78 15.6235C46.8375 15.6294 46.8907 15.6568 46.9286 15.7006C46.9665 15.7443 46.9865 15.801 46.9842 15.8589C46.9842 15.8589 46.9842 15.8587 46.9842 15.898C46.9371 17.5389 47.0941 19.1801 47.0784 20.8289H47.1099Z" stroke="#14141E" stroke-width="2" stroke-linecap="round" stroke-linejoin="round"/>
<path d="M14.6696 44.548L4.63308 47.5629L5.58255 42.0669L1.78467 38.0315L8.11715 36.1311L10.4008 43.0563C10.4008 43.0563 10.7541 44.1712 11.374 44.4146C12.4351 44.7852 13.582 44.8316 14.6696 44.548Z" fill="#00B4FB" stroke="#14141E" stroke-width="2" stroke-linecap="round" stroke-linejoin="round"/>
<path d="M14.6695 44.548L12.1587 44.6186C11.7883 44.6278 11.425 44.5154 11.1245 44.2984C10.8241 44.0815 10.603 43.7721 10.495 43.4175L10.4008 43.0878L14.0105 42.3026L14.6695 44.548Z" stroke="#14141E" stroke-width="2" stroke-linecap="round" stroke-linejoin="round"/>
<path d="M49.3383 44.548L59.3747 47.5629L58.4253 42.0669L62.2231 38.0315L55.8907 36.1311L53.607 43.0563C53.607 43.0563 53.2537 44.1712 52.6338 44.4146C51.5728 44.7852 50.4258 44.8316 49.3383 44.548Z" fill="#00B4FB" stroke="#14141E" stroke-width="2" stroke-linecap="round" stroke-linejoin="round"/>
<path d="M49.3383 44.548L51.8571 44.6186C52.2262 44.626 52.5875 44.513 52.8863 44.2961C53.1852 44.0793 53.4052 43.7708 53.5128 43.4175L53.607 43.0878L49.9973 42.3498L49.3383 44.548Z" stroke="#14141E" stroke-width="2" stroke-linecap="round" stroke-linejoin="round"/>
<path d="M53.5127 43.221C39.5051 38.6672 24.4165 38.6672 10.4088 43.221L7.34814 33.7993C23.3453 28.6015 40.5759 28.6015 56.573 33.7993L53.5127 43.221Z" fill="#00B4FB" stroke="#14141E" stroke-width="2" stroke-linecap="round" stroke-linejoin="round"/>
</svg>
