<svg width="138" height="57" viewBox="0 0 138 57" fill="none" xmlns="http://www.w3.org/2000/svg">
<g clip-path="url(#clip0_259_6012)">
<path d="M4.14727 33.2644V7.89726H0V4.71558H12.4754V7.89726H8.31285V33.2644H4.14727Z" fill="black"/>
<path d="M27.0014 23.7471H18.6885V26.9318C18.6701 27.7147 18.8825 28.4855 19.2989 29.1464C19.7058 29.7624 20.1971 30.0704 20.7728 30.0704H22.8511C24.2264 30.0704 24.914 29.0201 24.914 26.9195H26.9983C26.6748 31.1494 25.2924 33.2644 22.8511 33.2644H18.6885C17.5533 33.2644 16.5778 32.6422 15.7619 31.3979C14.9227 30.0655 14.4976 28.5101 14.5413 26.9318V17.4145C14.4933 15.8261 14.9185 14.2596 15.7619 12.9176C16.5757 11.6733 17.5492 11.0511 18.6824 11.0511H22.8511C23.9863 11.0511 24.9608 11.6774 25.7746 12.93C26.6121 14.27 27.0369 15.8307 26.9953 17.4145L27.0014 23.7471ZM18.6885 20.5654H22.8511V17.4145C22.8751 16.6212 22.6624 15.839 22.2407 15.1692C21.8338 14.5531 21.3455 14.2451 20.7759 14.2451C20.2062 14.2451 19.717 14.5531 19.308 15.1692C18.8875 15.8395 18.675 16.6214 18.6977 17.4145L18.6885 20.5654Z" fill="black"/>
<path d="M41.5215 17.4145H39.4586C39.2958 15.2913 38.6011 14.2308 37.3743 14.2328C36.8046 14.2328 36.3153 14.5408 35.9064 15.1568C35.4859 15.8272 35.2734 16.6091 35.2961 17.4022V26.9195C35.2776 27.7024 35.49 28.4732 35.9064 29.134C36.3133 29.7501 36.8046 30.0581 37.3804 30.0581C38.6011 30.0581 39.2958 29.0078 39.4647 26.9072H41.5276C41.3568 31.1453 39.9723 33.2644 37.3743 33.2644H35.293C34.1578 33.2644 33.1822 32.6422 32.3664 31.3979C31.5285 30.0648 31.1035 28.5099 31.1457 26.9318V17.4145C31.0978 15.8261 31.523 14.2596 32.3664 12.9176C33.1802 11.6733 34.1537 11.0511 35.2869 11.0511H37.3682C39.9825 11.0511 41.3669 13.1723 41.5215 17.4145Z" fill="black"/>
<path d="M45.687 33.2645V4.71558H49.8343V14.2329C49.9157 13.161 50.1313 12.3633 50.4813 11.8397C50.6307 11.5927 50.8419 11.3899 51.0937 11.2514C51.3455 11.113 51.6289 11.044 51.9155 11.0512H53.9999C55.1351 11.0512 56.1096 11.6775 56.9234 12.93C57.7609 14.2701 58.1857 15.8308 58.1441 17.4146V33.2645H53.9999V17.4146C54.0239 16.6213 53.8113 15.8391 53.3895 15.1692C52.9826 14.5532 52.4944 14.2452 51.9247 14.2452C51.3551 14.2452 50.8658 14.5532 50.4568 15.1692C50.0363 15.8396 49.8238 16.6215 49.8465 17.4146V33.2645H45.687Z" fill="black"/>
<path d="M62.2915 33.2644V11.0512H66.4388V14.2329C66.5222 13.161 66.7379 12.3633 67.0857 11.8397C67.2352 11.5927 67.4464 11.3898 67.6982 11.2514C67.95 11.113 68.2334 11.0439 68.52 11.0512H70.6044C71.7396 11.0512 72.7141 11.6775 73.5279 12.93C74.3654 14.2701 74.7902 15.8307 74.7486 17.4145V33.2644H70.6044V17.4145C70.6284 16.6213 70.4158 15.839 69.994 15.1692C69.5871 14.5532 69.0989 14.2452 68.5292 14.2452C67.9595 14.2452 67.4703 14.5532 67.0613 15.1692C66.6408 15.8396 66.4283 16.6214 66.451 17.4145V33.2644H62.2915Z" fill="black"/>
<path d="M83.043 11.0511H87.2086C88.3438 11.0511 89.3183 11.6774 90.1321 12.93C90.9696 14.27 91.3944 15.8307 91.3528 17.4145V26.9318C91.3923 28.5047 90.9674 30.054 90.1321 31.3825C89.3183 32.6371 88.3438 33.2644 87.2086 33.2644H83.043C81.9078 33.2644 80.9322 32.6422 80.1164 31.3979C79.2785 30.0648 78.8535 28.5099 78.8957 26.9318V17.4145C78.8478 15.8261 79.273 14.2596 80.1164 12.9176C80.9384 11.6733 81.9139 11.0511 83.043 11.0511ZM83.043 17.4145V26.9318C83.0245 27.7147 83.237 28.4855 83.6533 29.1464C84.0602 29.7624 84.5516 30.0704 85.1273 30.0704C85.7031 30.0704 86.1954 29.7624 86.6043 29.1464C87.0194 28.4849 87.2317 27.7146 87.2147 26.9318V17.4145C87.2387 16.6212 87.0261 15.839 86.6043 15.1692C86.1974 14.5531 85.7092 14.2451 85.1395 14.2451C84.5699 14.2451 84.0806 14.5531 83.6717 15.1692C83.2447 15.8375 83.0257 16.6195 83.043 17.4145Z" fill="black"/>
<path d="M95.4999 33.2645V11.0512C95.4577 9.47217 95.8827 7.91623 96.7206 6.58208C97.5344 5.33774 98.5099 4.71558 99.6472 4.71558H103.813C104.948 4.71558 105.923 5.34082 106.736 6.59132C107.574 7.92222 107.999 9.47511 107.957 11.0512V33.2645H103.813V20.5654H99.6472V33.2645H95.4999ZM99.6472 17.4146H103.813V11.0512C103.836 10.2648 103.624 9.48949 103.202 8.82743C102.796 8.21142 102.307 7.90342 101.738 7.90342C101.168 7.90342 100.679 8.21142 100.27 8.82743C99.8497 9.49004 99.6371 10.2649 99.6594 11.0512L99.6472 17.4146Z" fill="#00B4FB"/>
<path d="M114.167 33.2645V4.71558H118.324V33.2645H114.167Z" fill="#00B4FB"/>
<path d="M124.564 33.2644V4.71558H132.874C134.009 4.71558 134.985 5.34082 135.801 6.59132C136.639 7.92214 137.064 9.47508 137.022 11.0512V12.776C137.021 14.1973 136.695 15.5991 136.069 16.8725C135.433 18.1846 134.368 18.8406 132.874 18.8406H134.937C135.511 18.8406 135.999 19.1486 136.408 19.7646C136.829 20.435 137.041 21.2169 137.018 22.01V33.2644H132.874V23.7471C132.898 22.9539 132.686 22.1716 132.264 21.5018C131.852 20.8858 131.348 20.5778 130.799 20.5778H128.715V33.2644H124.564ZM128.709 17.4146H130.793C131.357 17.4146 131.845 17.0994 132.258 16.469C132.678 15.8019 132.891 15.0231 132.868 14.2329V11.0512C132.892 10.2648 132.679 9.48949 132.258 8.82743C131.851 8.21142 131.363 7.90342 130.793 7.90342H128.709V17.4146Z" fill="#00B4FB"/>
<path d="M7.53483 55.9366C10.5011 53.5403 14.392 52.7642 18.0724 52.336C22.3722 51.834 26.6996 51.5322 31.0147 51.2334C39.9623 50.6174 48.919 50.2385 57.8697 49.8782C66.8204 49.5178 75.7802 49.1698 84.7247 48.6092C93.6693 48.0486 102.528 47.2725 111.375 46.0682C115.727 45.4768 120.073 44.8084 124.379 43.9491C127.998 43.2253 131.675 42.2551 134.834 40.253C135.624 39.7528 136.375 39.1915 137.08 38.5744C137.824 37.9276 136.741 36.8404 136.003 37.4841C133.134 39.9789 129.478 41.2171 125.84 42.0518C121.724 43.0004 117.518 43.6319 113.328 44.2386C104.478 45.5261 95.5339 46.3423 86.5985 46.9337C77.6631 47.525 68.7002 47.8885 59.7435 48.2488C50.7867 48.6092 41.8238 48.9696 32.8884 49.5548C28.4329 49.8443 23.9805 50.1708 19.5341 50.6235C15.8568 50.9901 12.0727 51.5014 8.76467 53.2724C7.94347 53.7178 7.1659 54.2407 6.44232 54.834C5.67634 55.45 6.74749 56.5372 7.51957 55.9243L7.53483 55.9366Z" fill="#00B4FB"/>
</g>
<defs>
<clipPath id="clip0_259_6012">
<rect width="137.342" height="56.1183" fill="white"/>
</clipPath>
</defs>
</svg>
