<svg width="139" height="38" viewBox="0 0 139 38" fill="none" xmlns="http://www.w3.org/2000/svg">
<g clip-path="url(#clip0_258_2444)">
<path d="M4.19733 33.1943V7.88054H0V4.70557H12.626V7.88054H8.4132V33.1943H4.19733Z" fill="white"/>
<path d="M27.3271 23.6972H18.9139V26.8753C18.8952 27.6565 19.1102 28.4257 19.5316 29.0852C19.9434 29.6999 20.4407 30.0072 21.0234 30.0072H23.1267C24.5186 30.0072 25.2146 28.9591 25.2146 26.863H27.324C26.9966 31.084 25.5975 33.1945 23.1267 33.1945H18.9139C17.765 33.1945 16.7777 32.5736 15.952 31.3319C15.1026 30.0023 14.6724 28.4502 14.7166 26.8753V17.378C14.6681 15.7929 15.0984 14.2298 15.952 12.8906C16.7756 11.6489 17.7609 11.0281 18.9077 11.0281H23.1267C24.2756 11.0281 25.2619 11.653 26.0855 12.9029C26.9331 14.2402 27.363 15.7976 27.3209 17.378L27.3271 23.6972ZM18.9139 20.5223H23.1267V17.378C23.151 16.5864 22.9358 15.8058 22.509 15.1374C22.0972 14.5227 21.603 14.2153 21.0265 14.2153C20.45 14.2153 19.9548 14.5227 19.5409 15.1374C19.1153 15.8064 18.9002 16.5866 18.9232 17.378L18.9139 20.5223Z" fill="white"/>
<path d="M42.0228 17.378H39.935C39.7702 15.2593 39.0671 14.201 37.8255 14.203C37.249 14.203 36.7538 14.5104 36.3399 15.1251C35.9143 15.7941 35.6992 16.5743 35.7222 17.3657V26.863C35.7035 27.6442 35.9185 28.4134 36.3399 29.0729C36.7517 29.6876 37.249 29.9949 37.8317 29.9949C39.0671 29.9949 39.7702 28.9468 39.9411 26.8507H42.029C41.856 31.0799 40.4549 33.1945 37.8255 33.1945H35.7191C34.5702 33.1945 33.5829 32.5736 32.7572 31.3319C31.9092 30.0017 31.479 28.45 31.5218 26.8753V17.378C31.4732 15.7929 31.9036 14.2298 32.7572 12.8906C33.5808 11.6489 34.566 11.0281 35.7129 11.0281H37.8193C40.4652 11.0281 41.8663 13.1447 42.0228 17.378Z" fill="white"/>
<path d="M46.2388 33.1943V4.70557H50.4361V14.2028C50.5185 13.1332 50.7367 12.3372 51.0909 11.8147C51.2421 11.5682 51.4559 11.3658 51.7107 11.2276C51.9655 11.0895 52.2524 11.0206 52.5425 11.0279H54.652C55.8009 11.0279 56.7872 11.6528 57.6108 12.9027C58.4584 14.24 58.8883 15.7973 58.8462 17.3778V33.1943H54.652V17.3778C54.6763 16.5862 54.4611 15.8056 54.0343 15.1372C53.6225 14.5225 53.1283 14.2151 52.5518 14.2151C51.9752 14.2151 51.48 14.5225 51.0662 15.1372C50.6406 15.8061 50.4255 16.5864 50.4485 17.3778V33.1943H46.2388Z" fill="white"/>
<path d="M63.0435 33.1943V11.0279H67.2408V14.2028C67.3252 13.1332 67.5435 12.3372 67.8956 11.8147C68.0468 11.5682 68.2606 11.3658 68.5154 11.2277C68.7702 11.0895 69.0571 11.0206 69.3472 11.0279H71.4567C72.6056 11.0279 73.5919 11.6528 74.4155 12.9027C75.2631 14.24 75.693 15.7973 75.6509 17.3778V33.1943H71.4567V17.3778C71.481 16.5862 71.2658 15.8056 70.839 15.1372C70.4272 14.5225 69.933 14.2151 69.3565 14.2151C68.7799 14.2151 68.2847 14.5225 67.8709 15.1372C67.4453 15.8062 67.2302 16.5864 67.2532 17.3778V33.1943H63.0435Z" fill="white"/>
<path d="M84.0458 11.0281H88.2616C89.4106 11.0281 90.3968 11.653 91.2205 12.9029C92.068 14.2402 92.498 15.7976 92.4559 17.378V26.8753C92.4959 28.4449 92.0658 29.9909 91.2205 31.3166C90.3968 32.5685 89.4106 33.1945 88.2616 33.1945H84.0458C82.8968 33.1945 81.9095 32.5736 81.0838 31.3319C80.2358 30.0017 79.8057 28.45 79.8484 26.8753V17.378C79.7999 15.7929 80.2302 14.2298 81.0838 12.8906C81.9157 11.6489 82.903 11.0281 84.0458 11.0281ZM84.0458 17.378V26.8753C84.0271 27.6565 84.2421 28.4257 84.6635 29.0852C85.0753 29.6999 85.5725 30.0072 86.1552 30.0072C86.7379 30.0072 87.2362 29.6999 87.6501 29.0852C88.0701 28.4251 88.285 27.6564 88.2678 26.8753V17.378C88.2921 16.5864 88.0769 15.8058 87.6501 15.1374C87.2383 14.5227 86.7441 14.2153 86.1676 14.2153C85.5911 14.2153 85.0959 14.5227 84.682 15.1374C84.2499 15.8043 84.0283 16.5847 84.0458 17.378V17.378Z" fill="white"/>
<path d="M96.6528 33.1943V11.0279C96.61 9.45213 97.0402 7.89947 97.8882 6.56813C98.7118 5.32642 99.6992 4.70557 100.85 4.70557H105.066C106.215 4.70557 107.201 5.3295 108.025 6.57735C108.873 7.90545 109.303 9.45506 109.26 11.0279V33.1943H105.066V20.522H100.85V33.1943H96.6528ZM100.85 17.3778H105.066V11.0279C105.09 10.2431 104.875 9.46942 104.448 8.80875C104.036 8.19404 103.542 7.88669 102.966 7.88669C102.389 7.88669 101.894 8.19404 101.48 8.80875C101.055 9.46997 100.84 10.2432 100.863 11.0279L100.85 17.3778Z" fill="#36A9E1"/>
<path d="M115.546 33.1943V4.70557H119.752V33.1943H115.546Z" fill="#36A9E1"/>
<path d="M126.068 33.1943V4.70557H134.478C135.627 4.70557 136.615 5.3295 137.44 6.57735C138.288 7.90538 138.718 9.45504 138.676 11.0279V12.749C138.675 14.1673 138.345 15.5661 137.712 16.8369C137.068 18.1462 135.99 18.8009 134.478 18.8009H136.566C137.147 18.8009 137.641 19.1082 138.055 19.7229C138.481 20.3919 138.696 21.1721 138.673 21.9635V33.1943H134.478V23.697C134.503 22.9054 134.288 22.1248 133.861 21.4564C133.444 20.8417 132.934 20.5343 132.378 20.5343H130.269V33.1943H126.068ZM130.263 17.3778H132.372C132.942 17.3778 133.437 17.0633 133.855 16.4342C134.28 15.7685 134.495 14.9913 134.472 14.2028V11.0279C134.496 10.2431 134.281 9.46942 133.855 8.80875C133.443 8.19404 132.949 7.88669 132.372 7.88669H130.263V17.3778Z" fill="#36A9E1"/>
</g>
<defs>
<clipPath id="clip0_258_2444">
<rect width="139" height="38" fill="white"/>
</clipPath>
</defs>
</svg>
