<svg width="262" height="262" viewBox="0 0 262 262" fill="none" xmlns="http://www.w3.org/2000/svg">
<g clip-path="url(#clip0_258_1206)">
<path fill-rule="evenodd" clip-rule="evenodd" d="M88.0344 129.396C91.8752 127.2 95.415 128.064 99.0998 130.299C104.914 133.828 111.068 140.707 119.112 145.178C119.307 145.289 119.553 145.267 119.725 145.127C123.299 142.279 126.052 138.745 127.312 133.967C127.373 133.744 127.29 133.51 127.1 133.376C115.305 124.792 111.837 122.428 107.094 107.288C106.999 106.998 106.686 106.831 106.391 106.925C106.101 107.015 105.934 107.327 106.029 107.622C110.834 122.952 114.335 125.466 126.136 134.051C124.932 138.265 122.479 141.437 119.324 144.018C111.458 139.553 105.404 132.825 99.6738 129.346C95.61 126.877 91.7024 126.007 87.4657 128.437L87.4323 128.46C83.82 130.857 82.9112 134.597 83.2345 139.319C83.6916 146.014 86.6352 154.755 87.1035 164.331C83.9037 168.947 79.5779 171.344 74.5497 172.331C73.3846 170.959 72.3309 168.68 71.2829 165.346C69.5826 159.916 67.9494 151.739 66.0987 140.188C65.2402 134.854 64.9392 127.2 63.2167 120.655C62.0294 116.179 60.1786 112.221 57.0848 109.802C52.4078 106.134 48.9292 104.528 45.8689 104.055C42.7973 103.575 40.1383 104.233 37.1002 105.136C34.6307 105.872 31.9049 106.769 28.4543 107.299C22.6122 104.489 19.284 97.9394 19.1726 86.4114C31.0574 85.3133 38.0424 81.6285 40.5453 76.6059C42.1006 73.4787 41.9722 69.805 40.1828 65.8416C37.6129 60.1445 31.5648 53.8008 22.2666 47.6242C22.3725 44.9819 22.7236 42.9026 23.2922 41.3195C23.844 39.7754 24.6077 38.7274 25.5721 38.1309C26.8319 37.356 28.4207 37.3616 30.2714 37.9413C43.0816 49.0122 51.7221 54.4864 57.5029 56.1811C61.6057 57.3907 64.3484 56.7329 66.1768 54.9101L66.2214 54.8599C68.3899 52.1228 69.1144 50.0547 69.12 48.3879C69.1256 46.6766 68.3899 45.3609 67.5593 44.1457C66.7008 42.8915 65.7028 41.771 65.6749 40.3105C65.6582 39.3907 66.0429 38.3483 67.0519 37.0494C67.4198 36.9268 67.8658 36.9547 68.362 37.0773C69.0086 37.2334 69.7388 37.5567 70.5248 37.9804C73.0166 39.3238 76.0379 41.7208 78.9143 43.8113C79.1596 43.9952 79.511 43.9395 79.6949 43.6942C79.8733 43.4434 79.8175 43.0922 79.5722 42.9138C76.155 40.422 72.5262 37.5344 69.8002 36.3917C68.4735 35.8342 67.3306 35.7004 66.4833 36.0739L66.2715 36.2356C64.9727 37.8689 64.5377 39.19 64.56 40.3328C64.5823 41.4867 65.0785 42.479 65.7195 43.4434C66.7006 44.9318 68.0889 46.3644 67.9997 48.5551C67.9439 50.0157 67.2247 51.7939 65.3684 54.1408C63.7741 55.7128 61.3715 56.1587 57.8205 55.1163C52.1067 53.4328 43.5888 47.981 30.9125 37.0216C30.8567 36.9714 30.7899 36.9379 30.723 36.9156C28.4542 36.1854 26.5198 36.2355 24.9868 37.1832C22.7738 38.5489 21.3412 41.8993 21.1405 47.8974L21.3912 48.3824C30.6114 54.4641 36.6319 60.6852 39.1683 66.2987C40.8016 69.9166 40.969 73.2557 39.5475 76.1098C37.1226 80.9763 30.2158 84.3544 18.5596 85.3467C18.2753 85.369 18.0522 85.6143 18.0522 85.9041C18.0745 98.4523 21.8093 105.432 28.1364 108.38L28.4543 108.425C32.0443 107.89 34.8647 106.965 37.4178 106.206C40.2887 105.353 42.7974 104.707 45.7017 105.158C48.6172 105.61 51.9284 107.171 56.3991 110.677C59.3146 112.963 61.0204 116.72 62.1353 120.94C63.8522 127.445 64.1476 135.06 64.995 140.367C66.8624 151.99 68.5069 160.212 70.2183 165.68C71.3945 169.421 72.6153 171.896 73.9365 173.318C74.0647 173.457 74.2599 173.518 74.4438 173.485C79.9514 172.476 84.6729 169.889 88.1291 164.805L88.2238 164.465C87.789 154.81 84.8065 145.986 84.3494 139.241C84.054 134.976 84.7789 131.57 88.0344 129.396Z" fill="#00B4FB"/>
<path fill-rule="evenodd" clip-rule="evenodd" d="M69.5661 163.557C62.5645 157.854 52.2907 158.841 47.0619 166.924C43.5109 172.403 42.2901 181.099 45.8188 193.118C45.9079 193.413 45.7408 193.72 45.4453 193.809C45.1499 193.898 44.8376 193.726 44.7539 193.43C41.0915 180.988 42.4461 171.991 46.1252 166.316C51.7332 157.648 62.7595 156.577 70.2683 162.693C70.5081 162.888 70.5416 163.239 70.3465 163.479C70.1514 163.718 69.8002 163.752 69.5661 163.557Z" fill="#00B4FB"/>
<path fill-rule="evenodd" clip-rule="evenodd" d="M44.8211 193.581C31.7155 173.83 26.1465 145.618 29.1121 107.868C29.14 107.561 29.4076 107.332 29.7142 107.355C30.0208 107.383 30.2493 107.65 30.227 107.957C27.2837 145.389 32.7523 173.379 45.752 192.968C45.9192 193.224 45.8524 193.57 45.596 193.737C45.3396 193.91 44.9939 193.837 44.8211 193.581Z" fill="#00B4FB"/>
<path fill-rule="evenodd" clip-rule="evenodd" d="M33.7278 200.042C12.7789 165.591 7.83994 130.316 19.8139 94.1713C19.9143 93.8759 19.7524 93.5637 19.4625 93.4633C19.1727 93.3686 18.855 93.5247 18.7603 93.8201C6.64692 130.361 11.6639 166.021 32.9082 200.844C32.9919 200.978 33.1202 201.067 33.2762 201.101C34.7089 201.385 36.6766 201 38.6556 200.092C41.5599 198.765 44.4977 196.34 45.7965 193.508C45.9191 193.224 45.7965 192.895 45.5178 192.767C45.2391 192.639 44.91 192.761 44.7818 193.04C43.5888 195.649 40.8686 197.856 38.1928 199.077C36.5651 199.824 34.9542 200.209 33.7278 200.042Z" fill="#00B4FB"/>
<path fill-rule="evenodd" clip-rule="evenodd" d="M32.6739 82.2306C33.9672 74.7441 35.634 68.3501 37.5962 62.8426C37.7021 62.5527 38.0198 62.3966 38.3096 62.5025C38.5995 62.6029 38.7499 62.9262 38.6496 63.2161C36.7041 68.6735 35.054 75.0061 33.7719 82.4201C33.7162 82.7211 33.4321 82.9274 33.1255 82.8772C32.8244 82.8215 32.6181 82.5316 32.6739 82.2306Z" fill="#00B4FB"/>
<path fill-rule="evenodd" clip-rule="evenodd" d="M22.1492 85.213C26.1739 75.4967 31.2689 67.8819 37.1221 61.7834C37.3339 61.5604 37.6908 61.5549 37.9082 61.7668C38.1312 61.9842 38.1422 62.3353 37.9248 62.5583C32.1608 68.5676 27.1437 76.0708 23.1802 85.6422C23.0631 85.9265 22.7345 86.0603 22.4502 85.9433C22.1659 85.8262 22.0321 85.4973 22.1492 85.213Z" fill="#00B4FB"/>
<path fill-rule="evenodd" clip-rule="evenodd" d="M86.7852 165.714C115.449 182.967 139.832 188.737 161.952 188.413C162.264 188.408 162.515 188.653 162.52 188.96C162.526 189.266 162.28 189.523 161.974 189.528C139.676 189.852 115.098 184.054 86.2112 166.667C85.9492 166.511 85.8598 166.166 86.0214 165.904C86.1775 165.642 86.5232 165.552 86.7852 165.714Z" fill="#00B4FB"/>
<path fill-rule="evenodd" clip-rule="evenodd" d="M177.672 165.647C184.261 167.297 189.412 167.944 193.074 167.565C195.694 167.297 197.584 166.5 198.749 165.223C199.936 163.925 200.405 162.107 200.081 159.755C199.63 156.466 197.584 152.056 193.883 146.515C193.71 146.265 193.364 146.192 193.108 146.365C192.851 146.538 192.784 146.883 192.952 147.14C196.536 152.491 198.537 156.728 198.978 159.905C199.245 161.862 198.911 163.389 197.924 164.476C196.91 165.586 195.243 166.227 192.957 166.461C189.328 166.829 184.194 166.154 177.611 164.476C177.399 164.426 177.176 164.499 177.042 164.666C175.621 166.411 173.692 167.609 171.022 168.016C170.771 168.055 170.576 168.262 170.553 168.518C169.879 176.205 168.357 182.242 166.066 185.604C164.667 187.655 162.983 188.664 161.004 188.252C157.71 187.571 153.98 184.327 150.613 179.65C145.474 172.509 141.237 161.99 140.869 151.722C140.864 151.622 140.83 151.521 140.78 151.438C136.911 145.423 133.628 139.536 131.526 133.148C131.476 132.997 131.359 132.869 131.209 132.808C121.91 129 113.833 121.475 107.952 107.182C107.835 106.898 107.506 106.764 107.222 106.881C106.937 106.998 106.803 107.321 106.921 107.606C112.896 122.133 121.119 129.809 130.551 133.744C132.669 140.077 135.919 145.936 139.76 151.912C140.172 162.358 144.481 173.039 149.71 180.302C153.272 185.258 157.286 188.619 160.776 189.344C163.184 189.84 165.285 188.725 166.986 186.228C169.31 182.828 170.91 176.768 171.624 169.047C174.244 168.557 176.195 167.353 177.672 165.647Z" fill="#00B4FB"/>
<path fill-rule="evenodd" clip-rule="evenodd" d="M198.298 165.647C179.941 190.32 160.564 206.134 136.304 211.419C112.077 216.693 82.9559 211.452 45.0773 193.932C44.7985 193.804 44.6758 193.475 44.804 193.196C44.9322 192.912 45.2667 192.795 45.5454 192.923C83.1398 210.31 112.027 215.561 136.064 210.326C160.079 205.103 179.233 189.405 197.4 164.984C197.584 164.733 197.935 164.683 198.181 164.867C198.426 165.051 198.476 165.402 198.298 165.647Z" fill="#00B4FB"/>
<path fill-rule="evenodd" clip-rule="evenodd" d="M135.49 211.642C106.569 237.714 46.0251 246.962 -0.694686 206.118C-0.92324 205.917 -0.945723 205.56 -0.745042 205.332C-0.54436 205.098 -0.187506 205.075 0.0410482 205.276C46.2535 245.685 106.135 236.605 134.743 210.817C134.972 210.605 135.323 210.628 135.529 210.856C135.735 211.085 135.718 211.436 135.49 211.642Z" fill="#00B4FB"/>
<path fill-rule="evenodd" clip-rule="evenodd" d="M28.6774 193.202C19.0335 183.703 6.69699 189.812 0.174839 203.152C0.041051 203.425 -0.293331 203.542 -0.572055 203.403C-0.845205 203.269 -0.962106 202.935 -0.822744 202.662C6.08404 188.536 19.2452 182.348 29.4632 192.41C29.6806 192.627 29.6863 192.979 29.4689 193.196C29.2515 193.419 28.9004 193.419 28.6774 193.202Z" fill="#00B4FB"/>
<path fill-rule="evenodd" clip-rule="evenodd" d="M93.2409 231.922C70.012 253.272 39.1962 259.153 -0.48859 246.889C-0.784038 246.8 -0.951088 246.488 -0.856322 246.193C-0.76713 245.897 -0.454958 245.735 -0.159511 245.825C39.0626 257.949 69.5271 252.202 92.4829 231.102C92.7114 230.891 93.0626 230.907 93.2744 231.13C93.4807 231.359 93.4639 231.716 93.2409 231.922Z" fill="#00B4FB"/>
<path fill-rule="evenodd" clip-rule="evenodd" d="M23.7992 39.7475C15.0473 48.4325 6.95307 59.8379 0.191231 76.7899C0.0797415 77.0797 -0.243469 77.2191 -0.533342 77.102C-0.817641 76.9905 -0.957035 76.6672 -0.845546 76.3773C5.98876 59.2526 14.172 47.7301 23.0131 38.9559C23.2305 38.7385 23.5872 38.7441 23.8046 38.9615C24.0165 39.1789 24.0166 39.5301 23.7992 39.7475Z" fill="#00B4FB"/>
<path fill-rule="evenodd" clip-rule="evenodd" d="M134.274 103.86C128.7 99.6174 123.822 97.6552 119.502 97.4489C119.195 97.4322 118.934 97.672 118.917 97.9786C118.906 98.2852 119.14 98.5471 119.446 98.5638C123.717 98.7645 128.533 100.788 134.08 105.114C134.202 105.214 134.364 105.253 134.52 105.225C134.681 105.198 134.815 105.103 134.899 104.963C136.828 101.758 139.593 100.465 143.233 101.184C143.394 101.217 143.562 101.178 143.696 101.072C143.824 100.966 143.896 100.81 143.896 100.643C143.941 95.2192 144.649 91.3783 145.914 89.0203C146.689 87.5821 147.659 86.7181 148.824 86.4505C150.011 86.1774 151.371 86.5118 152.877 87.3703C155.301 88.7584 158.055 91.4954 160.993 95.4477C161.177 95.693 161.528 95.7432 161.773 95.5593C162.024 95.3753 162.074 95.0241 161.89 94.7788C158.83 90.6704 155.954 87.8497 153.429 86.4059C151.628 85.3747 149.989 85.0346 148.573 85.3635C147.129 85.698 145.886 86.7125 144.933 88.4908C143.662 90.8655 142.887 94.6562 142.792 99.9798C139.163 99.4613 136.337 100.777 134.274 103.86Z" fill="#00B4FB"/>
<path fill-rule="evenodd" clip-rule="evenodd" d="M147.308 86.9745L121.727 98.7366C121.448 98.8648 121.119 98.7422 120.985 98.4635C120.857 98.1848 120.98 97.8558 121.258 97.7276L146.84 85.9655C147.118 85.8373 147.453 85.9599 147.581 86.2386C147.709 86.5174 147.587 86.8463 147.308 86.9745Z" fill="#00B4FB"/>
<path fill-rule="evenodd" clip-rule="evenodd" d="M237.28 111.288C235.123 112.786 232.112 112.753 228.764 111.39C223.982 109.432 218.48 104.747 213.984 98.2685C209.492 91.7959 207.025 84.9966 206.863 79.8313C206.758 76.2181 207.781 73.3867 209.938 71.8892C212.096 70.3918 215.112 70.4203 218.454 71.7873C223.242 73.742 228.743 78.4363 233.235 84.9089C237.731 91.3873 240.199 98.1771 240.355 103.346C240.467 106.956 239.438 109.791 237.28 111.288ZM236.645 110.373C238.537 109.059 239.34 106.538 239.241 103.381C239.093 98.3796 236.669 91.8112 232.32 85.544C227.97 79.2768 222.669 74.7134 218.032 72.8191C215.109 71.6221 212.466 71.4915 210.574 72.8047C208.687 74.114 207.884 76.636 207.977 79.797C208.135 84.7998 210.555 91.3624 214.905 97.6296C219.254 103.897 224.559 108.466 229.186 110.358C232.115 111.552 234.758 111.682 236.645 110.373Z" fill="#00B4FB"/>
<path fill-rule="evenodd" clip-rule="evenodd" d="M230.798 100.269C229.857 100.922 228.448 100.84 226.838 100.03C224.706 98.9534 222.16 96.6022 219.984 93.4666C217.808 90.331 216.496 87.1233 216.234 84.7498C216.038 82.9576 216.454 81.6093 217.396 80.956C218.337 80.3026 219.748 80.3833 221.356 81.1954C223.488 82.2716 226.034 84.6227 228.21 87.7583C230.386 90.8939 231.698 94.1016 231.96 96.4751C232.158 98.2657 231.74 99.6155 230.798 100.269ZM230.162 99.3517C230.835 98.8844 230.996 97.8797 230.854 96.5984C230.606 94.3605 229.347 91.349 227.295 88.3929C225.244 85.4368 222.863 83.2036 220.856 82.1909C219.703 81.6071 218.706 81.4057 218.032 81.8731C217.359 82.3405 217.201 83.3436 217.344 84.6277C217.59 86.8628 218.85 89.8743 220.901 92.8304C222.952 95.7865 225.333 98.0197 227.343 99.0352C228.493 99.6162 229.489 99.8191 230.162 99.3517Z" fill="#00B4FB"/>
<path fill-rule="evenodd" clip-rule="evenodd" d="M171.373 99.6229L210.389 72.832C210.64 72.6592 210.706 72.3136 210.528 72.0572C210.355 71.8063 210.01 71.7394 209.753 71.9122L170.648 98.7645C170.587 98.8091 170.537 98.8592 170.498 98.9261C169.277 100.81 169.037 103.804 169.656 107.282C170.553 112.316 173.235 118.409 177.081 123.526C180.766 128.426 185.543 132.418 190.282 134.157C193.526 135.35 196.759 135.495 199.641 134.213C199.658 134.207 199.68 134.196 199.702 134.185L236.884 111.658C237.146 111.497 237.235 111.157 237.074 110.895C236.912 110.627 236.572 110.543 236.31 110.705L199.156 133.209C196.542 134.357 193.61 134.19 190.666 133.109C186.106 131.431 181.518 127.573 177.973 122.857C174.238 117.885 171.624 111.976 170.754 107.082C170.202 103.999 170.331 101.329 171.373 99.6229Z" fill="#00B4FB"/>
<path fill-rule="evenodd" clip-rule="evenodd" d="M174.054 125.377C156.361 101.803 164.795 84.2095 180.487 92.8388C180.76 92.9893 181.095 92.889 181.245 92.6214C181.396 92.3482 181.295 92.0082 181.028 91.8633C164.427 82.7378 154.449 101.122 173.174 126.063L173.196 126.09C181.006 135.132 188.068 139.999 193.632 141.638C197.991 142.92 201.47 142.251 203.766 140.121C206.041 138.009 207.184 134.419 206.782 129.725C206.76 129.418 206.487 129.19 206.18 129.212C205.873 129.24 205.645 129.513 205.673 129.814C206.035 134.09 205.082 137.384 203.008 139.302C200.957 141.203 197.841 141.716 193.95 140.567C188.52 138.973 181.664 134.19 174.054 125.377Z" fill="#00B4FB"/>
<path fill-rule="evenodd" clip-rule="evenodd" d="M202.718 140.863C200.483 144.771 196.787 146.393 192.322 145.897C185.872 145.183 177.728 139.954 170.18 130.779C160.14 118.576 157.916 105.214 160.207 98.118C161.261 94.868 163.262 92.8891 165.843 92.7163C166.15 92.694 166.417 92.9281 166.434 93.2347C166.456 93.5413 166.228 93.8033 165.916 93.8256C164.5 93.9259 163.323 94.7119 162.437 96.0108C161.484 97.3988 160.86 99.3499 160.609 101.697C159.845 108.96 162.693 119.914 171.044 130.071C178.352 138.962 186.195 144.102 192.444 144.793C196.436 145.233 199.747 143.806 201.748 140.311C201.904 140.044 202.244 139.949 202.512 140.099C202.774 140.255 202.869 140.595 202.718 140.863Z" fill="#00B4FB"/>
<path fill-rule="evenodd" clip-rule="evenodd" d="M143.835 108.553L163.925 94.4221C164.176 94.2437 164.238 93.8981 164.065 93.6472C163.886 93.3908 163.535 93.3351 163.284 93.5079L143.116 107.695L142.988 107.823C141.037 110.449 140.424 114.635 140.909 119.329C141.622 126.23 144.688 134.241 149.103 139.887C153.668 145.73 159.36 151.271 165.024 154.158C168.904 156.137 172.778 156.867 176.295 155.686C176.318 155.68 176.34 155.669 176.357 155.663L197.757 145.389C198.03 145.256 198.147 144.927 198.014 144.648C197.885 144.369 197.551 144.252 197.272 144.386L175.911 154.638C172.666 155.719 169.104 154.989 165.531 153.166C159.99 150.345 154.443 144.91 149.984 139.202C145.691 133.711 142.715 125.918 142.018 119.217C141.572 114.886 142.057 111.006 143.835 108.553Z" fill="#00B4FB"/>
<path fill-rule="evenodd" clip-rule="evenodd" d="M159.045 55.0175C156.895 56.981 153.555 57.4084 149.655 56.4442C144.052 55.058 137.221 50.7945 131.23 44.4194C125.24 38.0443 121.449 31.0039 120.475 25.3792C119.791 21.4666 120.49 18.2165 122.64 16.2531C124.795 14.2844 128.124 13.8561 132.024 14.8203C137.638 16.2072 144.464 20.465 150.454 26.8401C156.445 33.2152 160.236 40.2556 161.21 45.8803C161.887 49.7981 161.2 53.0489 159.045 55.0175ZM158.29 54.1915C160.201 52.4456 160.709 49.5418 160.111 46.0675C159.166 40.6091 155.454 33.798 149.637 27.608C143.82 21.418 137.204 17.2484 131.761 15.8984C128.288 15.0397 125.306 15.3223 123.389 17.0734C121.483 18.8141 120.97 21.7228 121.574 25.192C122.519 30.6503 126.225 37.4665 132.042 43.6565C137.859 49.8465 144.475 54.0162 149.923 55.3611C153.397 56.2198 156.378 55.9373 158.29 54.1915Z" fill="#00B4FB"/>
<path fill-rule="evenodd" clip-rule="evenodd" d="M83.9576 52.6064L123.187 17.1348C123.417 16.928 123.429 16.5713 123.227 16.3447C123.018 16.119 122.667 16.1 122.438 16.3069L83.125 51.8588L82.9917 52.0333C81.9388 54.2866 82.1333 57.5839 83.3573 61.2771C85.1348 66.6477 89.0515 72.8862 94.1131 77.8795C98.9603 82.654 104.875 86.2626 110.4 87.4236C114.172 88.2161 117.77 87.8691 120.758 86.0269C120.775 86.012 120.792 85.9971 120.816 85.9875L158.66 55.4746C158.898 55.2791 158.938 54.9311 158.745 54.6906C158.553 54.45 158.2 54.4128 157.963 54.6084L120.139 85.0933C117.4 86.7758 114.09 87.0573 110.631 86.3325C105.289 85.2141 99.5777 81.7012 94.898 77.0835C89.9687 72.221 86.1461 66.1559 84.4142 60.9283C83.3197 57.6152 83.0462 54.653 83.9576 52.6064Z" fill="#00B4FB"/>
<path fill-rule="evenodd" clip-rule="evenodd" d="M90.9315 80.4589C80.991 70.6458 76.4874 61.2839 76.06 54.2405C75.7839 49.6972 77.2031 46.1469 79.9858 44.1469C82.9983 41.9837 87.5466 41.6515 93.1245 43.7265C93.4117 43.8353 93.732 43.6841 93.8427 43.3945C93.9481 43.1119 93.8012 42.7902 93.514 42.6814C87.4961 40.4447 82.5872 40.9087 79.3396 43.2422C76.2757 45.4438 74.6427 49.3169 74.9438 54.305C75.3865 61.5455 79.9486 71.1855 90.1607 81.2652L90.1898 81.2922C100.252 89.955 108.844 94.1686 115.283 95.0883C120.289 95.8058 124.035 94.5351 126.241 91.857C128.438 89.1991 129.142 85.1085 127.971 80.0444C127.904 79.7488 127.605 79.5607 127.305 79.6281C127.005 79.6954 126.82 79.9956 126.888 80.2972C127.955 84.9402 127.396 88.7114 125.383 91.1504C123.386 93.5683 119.971 94.6304 115.436 93.9832C109.146 93.0861 100.771 88.929 90.9315 80.4589Z" fill="#00B4FB"/>
<path fill-rule="evenodd" clip-rule="evenodd" d="M125.181 92.8537C123.31 97.4579 119.482 99.7988 114.467 99.9603C107.199 100.192 97.3611 95.7495 87.5641 86.906C76.4105 76.8287 71.4672 64.939 71.1856 56.6484C70.991 50.8484 73.1022 46.783 76.8097 46.0033C77.1108 45.942 77.4038 46.1371 77.4647 46.4336C77.5327 46.7353 77.3407 47.0301 77.0405 47.0975C75.4563 47.4275 74.2537 48.4879 73.4536 50.0705C72.6098 51.7463 72.2124 53.9879 72.305 56.6084C72.5766 64.6949 77.4426 76.2593 88.313 86.0778C97.8348 94.6738 107.37 99.0716 114.43 98.8449C118.973 98.7003 122.456 96.6013 124.148 92.4333C124.266 92.1489 124.588 92.01 124.876 92.1249C125.158 92.2407 125.298 92.5633 125.181 92.8537Z" fill="#00B4FB"/>
<path fill-rule="evenodd" clip-rule="evenodd" d="M54.7219 66.7225L74.8776 48.0759C75.1075 47.8691 75.1211 47.5185 74.9122 47.2928C74.7033 47.0671 74.3469 47.0489 74.1241 47.261L53.9008 65.967L53.7879 66.1075C52.0372 69.2814 52.0015 73.9435 53.2659 78.9945C55.1263 86.4267 59.7682 94.7106 65.5439 100.194C71.5162 105.862 78.6892 111.036 85.4256 113.302C90.0249 114.849 94.4265 115.042 98.136 113.203C98.1538 113.195 98.1775 113.185 98.1943 113.17L120.388 98.5623C120.649 98.3947 120.72 98.0485 120.55 97.7861C120.381 97.5299 120.036 97.4603 119.775 97.6279L97.611 112.219C94.1542 113.922 90.0628 113.685 85.7816 112.243C79.1849 110.026 72.1638 104.942 66.3141 99.3818C60.6849 94.0392 56.1615 85.9689 54.3464 78.7233C53.1709 74.0333 53.1196 69.6949 54.7219 66.7225Z" fill="#00B4FB"/>
<path fill-rule="evenodd" clip-rule="evenodd" d="M177.026 155.228C175.554 158.618 172.187 161.226 167.61 161.589C160.971 162.113 151.673 157.854 142.118 143.94C133.946 132.05 131.755 121.029 133.84 114.34C135.289 109.679 138.757 107.031 143.746 107.438C144.053 107.466 144.281 107.734 144.253 108.04C144.231 108.347 143.963 108.576 143.657 108.553C139.242 108.191 136.187 110.549 134.905 114.668C132.887 121.152 135.122 131.793 143.038 143.31C152.253 156.728 161.122 160.981 167.521 160.48C171.635 160.151 174.684 157.832 176.006 154.782C176.128 154.504 176.457 154.37 176.736 154.493C177.02 154.615 177.148 154.944 177.026 155.228Z" fill="#00B4FB"/>
<path fill-rule="evenodd" clip-rule="evenodd" d="M66.812 37.1274C57.5862 38.8945 48.2879 41.3863 38.9172 44.6753C38.6273 44.7756 38.3099 44.6195 38.2095 44.3296C38.1036 44.0398 38.2596 43.722 38.5495 43.6217C47.9759 40.316 57.3244 37.8131 66.6059 36.0348C66.9069 35.9735 67.1968 36.1742 67.2581 36.4752C67.3138 36.7818 67.1186 37.0716 66.812 37.1274Z" fill="#00B4FB"/>
<path fill-rule="evenodd" clip-rule="evenodd" d="M150.12 43.9587C149.19 44.8077 147.638 44.931 145.756 44.3065C143.229 43.4647 140.043 41.299 137.146 38.2161C134.249 35.1332 132.299 31.8326 131.643 29.2825C131.152 27.3779 131.394 25.8562 132.329 25.0031C133.258 24.1541 134.811 24.0307 136.692 24.6553C139.219 25.497 142.403 27.6649 145.3 30.7478C148.197 33.8307 150.149 37.1292 150.806 39.6793C151.297 41.5839 151.052 43.1076 150.12 43.9587ZM149.367 43.1355C150.055 42.5075 150.091 41.365 149.726 39.9567C149.105 37.5432 147.234 34.4333 144.487 31.5108C141.741 28.5883 138.736 26.5132 136.34 25.7165C134.939 25.2495 133.773 25.1941 133.081 25.8263C132.391 26.4563 132.36 27.5996 132.723 29.0051C133.343 31.4185 135.217 34.5313 137.961 37.4511C140.707 40.3736 143.712 42.4534 146.108 43.25C147.512 43.715 148.675 43.7676 149.367 43.1355Z" fill="#00B4FB"/>
</g>
<defs>
<clipPath id="clip0_258_1206">
<rect width="262" height="262" fill="white" transform="translate(262) rotate(90)"/>
</clipPath>
</defs>
</svg>
