<svg width="88" height="88" viewBox="0 0 88 88" fill="none" xmlns="http://www.w3.org/2000/svg">
<path d="M36.6388 15.75C39.9104 10.0833 48.0896 10.0833 51.3612 15.75L72.1458 51.75C75.4175 57.4167 71.3279 64.5 64.7846 64.5H23.2154C16.6721 64.5 12.5825 57.4167 15.8542 51.75L36.6388 15.75Z" stroke="#00B4FB" stroke-width="3"/>
<path d="M46.1228 45.0591H41.9474L41.0702 28H47L46.1228 45.0591ZM41 51.0316C41 49.9349 41.2924 49.1719 41.8772 48.7428C42.462 48.2898 43.1754 48.0633 44.0175 48.0633C44.8363 48.0633 45.538 48.2898 46.1228 48.7428C46.7076 49.1719 47 49.9349 47 51.0316C47 52.0807 46.7076 52.8436 46.1228 53.3205C45.538 53.7735 44.8363 54 44.0175 54C43.1754 54 42.462 53.7735 41.8772 53.3205C41.2924 52.8436 41 52.0807 41 51.0316Z" fill="#00B4FB"/>
</svg>
